<?xml version="1.0" encoding="utf-8"?>
<!-- Generator: Adobe Illustrator 22.1.0, SVG Export Plug-In . SVG Version: 6.00 Build 0)  -->
<svg version="1.1" id="Layer_1" xmlns="http://www.w3.org/2000/svg" xmlns:xlink="http://www.w3.org/1999/xlink" x="0px" y="0px"
	 viewBox="0 0 3608 2024" style="enable-background:new 0 0 3608 2024;" xml:space="preserve">
<style type="text/css">
	.st0{fill:#2E3192;stroke:#000000;stroke-miterlimit:10;}
	.st1{fill:#231F20;}
	.st2{fill:#3A9848;}
</style>
<path class="st0" d="M1388.5-53.5"/>
<g>
	<g>
		<g>
			<path class="st1" d="M2655.5,1072.4c-9.2,0-17.8-5.6-21.2-14.7l-251.2-667c-4.4-11.7,1.5-24.8,13.2-29.2
				c11.7-4.4,24.8,1.5,29.2,13.2l251.2,667c4.4,11.7-1.5,24.8-13.2,29.2C2660.8,1071.9,2658.1,1072.4,2655.5,1072.4z"/>
			<path class="st1" d="M2877.4,489.1c-2.7,0-5.4-0.5-8.1-1.5c-11.7-4.5-17.6-17.6-13.1-29.3l32.1-83.8
				c4.5-11.7,17.6-17.6,29.3-13.1c11.7,4.5,17.6,17.6,13.1,29.3l-32.1,83.8C2895.1,483.6,2886.5,489.1,2877.4,489.1z"/>
			<path class="st1" d="M2655.5,1072.4c-2.7,0-5.4-0.5-8.1-1.5c-11.7-4.5-17.6-17.6-13.1-29.3L2809.5,581
				c4.5-11.7,17.6-17.6,29.3-13.1c11.7,4.5,17.6,17.6,13.1,29.3l-175.2,460.6C2673.2,1066.8,2664.6,1072.4,2655.5,1072.4z"/>
			<path class="st1" d="M3331.7,1072.4c-5.5,0-11-2-15.3-6l-500.9-460.6c-9.2-8.5-9.8-22.8-1.3-32.1c8.5-9.2,22.8-9.8,32.1-1.3
				L3347,1033c9.2,8.5,9.8,22.8,1.3,32.1C3343.9,1069.9,3337.8,1072.4,3331.7,1072.4z"/>
			<path class="st1" d="M2824.1,1072.4c-2.7,0-5.4-0.5-8.1-1.5c-11.7-4.5-17.6-17.6-13.1-29.3l253.8-667
				c4.5-11.7,17.6-17.6,29.3-13.1c11.7,4.5,17.6,17.6,13.1,29.3l-253.8,667C2841.9,1066.8,2833.3,1072.4,2824.1,1072.4z"/>
			<path class="st1" d="M3331.7,1072.4c-9.1,0-17.8-5.6-21.2-14.6l-253.8-667c-4.5-11.7,1.4-24.8,13.1-29.3
				c11.7-4.4,24.8,1.4,29.3,13.1l253.8,667c4.5,11.7-1.4,24.8-13.1,29.3C3337.1,1071.9,3334.3,1072.4,3331.7,1072.4z"/>
		</g>
	</g>
	<g>
		<path class="st1" d="M2469.6,1587.7c14.3,14.5,32.3,22.1,53.3,22.1c20.8,0,39.2-7.1,53.6-21.5c17.6-17.8,21.2-38.2,21.2-82.2h-57
			c-8.2,0-11.1-0.6-14.3-2.6c-3.9-2.6-6.3-6.9-6.3-12.1c0-5.2,2.4-9.5,6.3-12.2c3.3-1.9,6.1-2.6,14.3-2.6h69.2
			c5.2,0,11.1,0,15.6,4.6c4.6,4.6,4.6,10.4,4.6,15.6v5.6c0,56.4-5,80.9-30.6,106.2c-19.5,19.5-44.9,30.6-76.5,30.6
			c-32.1,0-57.9-11.5-77-30.4c-29.5-29.3-31.4-55.7-31.4-126.6c0-70.9,2.2-97.1,31.4-126.6c18.9-19.1,45.1-30.4,76.8-30.4
			c39.9,0,65.3,15.6,82.8,37.1c13,15.6,19.7,34.9,19.7,44.9c0,5.4-1.3,9.1-4.3,12.2c-3,3-6.9,4.3-11.1,4.3c-4.3,0-7.8-1.3-10.2-3.5
			c-3.5-3-5.9-8-7.8-13.9c-11.1-32.7-35.1-51.6-69.4-51.6c-20.8,0-38.8,7.6-52.9,22.1c-19.7,20.2-21.7,42.9-21.7,105.4
			C2447.9,1545.8,2450.3,1567.9,2469.6,1587.7z"/>
		<path class="st1" d="M2772.8,1343.5c2.4-6.3,4.1-9.1,6.5-11.9c3-3.3,6.9-5.4,12.4-5.4s9.3,2.2,12.4,5.4c2.4,2.8,4.1,5.4,6.5,11.9
			l100.2,267.5c3,8.2,5,15.8-1.5,22.3c-3,3-7.4,5-12.1,5c-3.2,0-6.1-1.1-8.5-2.8c-3.5-2.8-5-5.2-8-13.2l-20.4-55.5h-137.2
			l-20.4,55.5c-3,8-4.5,10.4-8,13.2c-2.4,1.7-5.2,2.8-8.5,2.8c-4.8,0-9.1-2-12.1-5c-6.5-6.5-4.3-14.1-1.3-22.3L2772.8,1343.5z
			 M2733.3,1538.2h116.4l-58.1-158.9L2733.3,1538.2z"/>
		<path class="st1" d="M2973.4,1332.5c4.6-4.6,10.4-4.6,15.6-4.6h98.6c54,0,91.9,32.5,91.9,85.9c0,45.1-27.5,74.4-67.4,82.8
			l64,111.6c3.9,6.9,5,10.6,5,15c0,5.2-3,9.8-8.5,12.8c-2.6,1.5-5.9,2.4-8.5,2.4c-8.5,0-12.8-6.5-16.9-13.7l-71.5-125.1h-73.5v116.2
			c0,8.7-0.4,11.5-3,15.6s-7.6,6.9-13.7,6.9c-6.1,0-11.1-2.8-13.7-6.9c-2.6-4.1-3-6.9-3-15.6v-267.7
			C2968.8,1342.9,2968.8,1337,2973.4,1332.5z M3002.2,1357.4v113.2h82.4c36,0,61.6-18.7,61.6-56.4c0-37.7-25.6-56.8-61.6-56.8
			H3002.2z"/>
		<path class="st1" d="M3315.8,1493.4c-23.8-3.7-40.3-9.5-56.2-23.6c-16.3-14.3-23.8-33.2-23.8-57.4c0-52.5,37.9-86.9,98.9-86.9
			c31.9,0,49.4,5.6,75.7,21.7c7.2,4.3,12.8,10,12.8,16.9c0,3.7-1.1,6.9-3.7,9.8c-2.8,3.2-5.9,4.8-10.4,4.8c-4.6,0-9.8-2.6-15.2-6.1
			c-20.8-14.1-35.3-18.4-60.5-18.4c-41.4,0-65.5,22.8-65.5,56.8c0,15.6,4.6,28,14.3,36.2c11.1,9.3,21.2,13.9,41.4,16.9l34,5.2
			c28.8,4.6,43.6,10.2,56.6,21.5c16.7,14.1,25.8,35.8,25.8,61.1c0,54-42.5,87.6-106.9,87.6c-38.4,0-60.1-7.4-87.8-26
			c-8.2-5.4-13.9-10.8-13.9-18.9c0-3.9,1.3-8,4.5-11.3c2.8-2.8,6.3-4.1,10.2-4.1c3.7,0,9.5,2.4,15.4,6.9
			c23,17.6,42.5,23.8,72.6,23.8c45.3,0,73.1-20.8,73.1-57c0-16.3-5-29.9-15-38.8c-10-8.7-18-11.5-40.3-15L3315.8,1493.4z"/>
	</g>
	<g>
		<path class="st2" d="M1028.8,1213.7c-15-9.3-34.7-4.7-44,10.4c-21.7,34.8-55.2,58.3-94.2,65.8c-39,7.5-78.9-1.6-111.9-26
			c-14.3-10.5-34.3-7.5-44.8,6.8c-10.5,14.3-7.5,34.3,6.8,44.8c47.7,35.1,105.2,48.3,162.1,37.3c56.8-11,105.2-44.8,136.4-95.1
			C1048.6,1242.9,1043.9,1223.1,1028.8,1213.7z"/>
		<path class="st2" d="M949.8,1000.4c5.3,3.6,11.2,6,17.4,7.3c6,1.1,12.3,1.2,18.5,0c6.2-1.2,12.2-3.7,17.5-7
			c5.1-3.5,9.5-7.9,13.1-13.2c7.3-10.6,9.7-23.5,7.3-36.1c-0.6-3.3-1.6-6.3-2.7-9c-1.1-3-2.3-5.8-4.2-8.4c-1.8-2.5-3.9-5.2-6-7.3
			c-2-2.1-4.8-4.3-7.3-6.1c-2.5-1.7-5.2-3-8-4.5c-3.1-1.1-6-2.1-9-2.5c-3.2-0.6-6.5-1-9.4-1.1c-16-0.2-31.4,8.1-40.3,21.2
			c-1.9,2.6-3.2,5.5-4.4,8.3c-1.5,2.8-2.4,6.1-2.8,9c-0.6,3.2-1,6.2-1.1,9.4c-0.1,3.1,0.2,6.3,1.1,9.1
			C932,982.3,939.3,993.3,949.8,1000.4z"/>
		<path class="st2" d="M1313.9,748.9c-1.4-2.7-3.4-5.3-5.1-8c-1.8-2.4-4.3-4.7-6.6-6.5c-2.5-2-4.9-3.9-7.7-5.5
			c-5.3-3.1-11.5-5.1-18-5.8c-3.1-0.3-6.3-0.4-9.4,0c-3,0.1-6.3,0.5-9.2,1.4c-2.9,1-6.1,2.1-8.8,3.5c-2.5,1.5-5.4,3.3-7.8,5.2
			c-2.4,1.9-4.7,4.3-6.9,6.5c-2,2.5-3.9,4.9-5.1,7.8c-1.6,2.7-2.9,5.6-3.9,8.6c-2,6-2.8,12.1-2.3,18.4c0.2,6.4,1.9,12.4,4.8,18.1
			c3.3,5.6,7.1,10.7,12,14.9c4.7,3.8,10.5,7.1,16.6,9.1c12.2,4,25,2.9,36.7-2.8c5.5-2.9,10.6-6.8,14.5-11.8
			c4.2-4.6,7.3-10.1,9.3-16.1c1-3.2,1.7-6.3,2-9.2c0.3-3.2,0.4-6.3,0.1-9.5c-0.4-3.1-0.6-6.3-1.7-9.3
			C1316.4,754.8,1315.3,751.6,1313.9,748.9z"/>
		<path class="st2" d="M735.2,1026.1c1.4-6.1,1.5-12.4,0.3-18.6c-0.6-3.3-1.6-6.3-2.7-9c-1.3-3-2.7-5.7-4.5-8.3
			c-1.8-2.5-3.5-5.2-6-7.3c-2.1-2.2-4.6-4.4-7.1-6.1c-2.6-1.7-5.5-3-8.4-4.5c-2.7-1.2-6-2.1-9-2.5c-3.2-0.6-6.2-1-9.4-1.1
			c-6.2-0.2-12.5,1.1-18.5,3.6c-2.8,1.2-5.7,2.7-8.3,4.5c-2.6,1.5-5.3,3.5-7.4,5.7c-2.1,2.3-4.3,4.8-6.1,7.3
			c-1.5,2.5-3.2,5.5-4.3,8.3c-1.2,2.8-2.1,6-2.9,9c-0.6,3.2-1,6.2-0.7,9.3c-0.1,3.1,0.2,6.3,0.8,9.4c1.2,6.2,3.4,11.9,6.9,17.2
			c3.3,5.5,7.7,9.9,13,13.5c5.6,3.4,11.4,5.9,17.7,7.3c6,1.1,12.7,1.1,18.9-0.1c12.6-2.4,23.3-9.6,30.8-20.2
			C731.6,1038.2,734.2,1032.4,735.2,1026.1z"/>
		<path class="st2" d="M1596.8,848.1c-0.7-2.8-2.1-6.1-3.5-8.8c-1.4-2.7-3-5.2-4.8-7.9c-2.2-2.5-4.3-4.7-6.6-6.6
			c-2.5-2-5.2-4-7.7-5.5c-13.9-7.9-31.4-8.1-45.5-0.9c-2.9,1.3-5.4,3.3-7.8,5.2c-2.6,1.8-5,4.2-6.8,6.5c-2,2.5-3.9,4.9-5.5,7.7
			c-1.6,2.7-2.9,5.6-3.5,8.5c-4,12.2-3,25.4,2.8,36.7c2.9,5.7,6.9,10.7,11.7,14.8c4.7,3.8,10.2,7,16.2,9s12.5,2.7,18.7,2.4
			c6.1-0.6,12.2-2.3,17.8-5.3c11.5-5.7,19.9-15.8,23.8-28.1c1-3.2,1.7-6.3,2-9.2c0.5-3.2,0.8-6.2,0.4-9.4
			C1598.1,854.3,1597.6,851,1596.8,848.1z"/>
		<path class="st2" d="M1126.7,42c-528.9,0-957.6,428.7-957.6,957.6c0,528.9,428.7,957.6,957.6,957.6
			c528.9,0,957.6-428.7,957.6-957.6C2084.3,470.8,1655.5,42,1126.7,42z M1001.7,1533c-35.8,25.6-80.7,34.3-123.5,23.9
			c-166.4-40.4-294.7-173.7-326.8-339.8l-61.4-317.7c-6.7-34.7,16-68.4,50.7-75.1l501-96.9c34.7-6.7,68.4,16,75.1,50.7l61.4,317.5
			C1210.3,1261.8,1141,1433.4,1001.7,1533z M1761.5,769.3l-99.9,307.6c-52.3,161-195.9,277.7-366.1,297.4
			c-29.1,3.4-58-1.9-83.7-14.5c29.3-78.3,39.4-163.6,27.2-248.4c24.7-5.7,50.3-4.8,74.7,3.1c37.8,12.3,68.2,39.5,85.4,76.9
			c7.4,16.1,26.4,23.1,42.5,15.7c16.1-7.4,23.1-26.4,15.7-42.5c-24.8-53.8-68.7-93.2-123.8-111.1c-34.7-11.3-70.9-12.9-105.8-5.4
			l-64.1-331.4c-4.5-23.4-19.7-41.9-39.5-52.1l30-92.5c10.9-33.6,47.1-52.1,80.7-41.2l485.4,157.6
			C1754,699.5,1772.4,735.7,1761.5,769.3z"/>
	</g>
</g>
</svg>
